<mxfile host="65bd71144e">
    <diagram id="mB5ydW78VJh6MIIuK2Tc" name="Page-1">
        <mxGraphModel dx="1088" dy="773" grid="1" gridSize="10" guides="1" tooltips="1" connect="1" arrows="1" fold="1" page="1" pageScale="1" pageWidth="850" pageHeight="1100" background="none" math="0" shadow="0">
            <root>
                <mxCell id="0"/>
                <mxCell id="1" parent="0"/>
                <mxCell id="2" value="&lt;font style=&quot;font-size: 22px;&quot; color=&quot;#ffffff&quot;&gt;&lt;b&gt;DB&lt;/b&gt;&lt;/font&gt;" style="shape=cylinder3;whiteSpace=wrap;html=1;boundedLbl=1;backgroundOutline=1;size=15;fillColor=#ffe6cc;strokeColor=#FF9933;sketch=1;curveFitting=1;jiggle=2;" vertex="1" parent="1">
                    <mxGeometry x="100" y="110" width="60" height="80" as="geometry"/>
                </mxCell>
                <mxCell id="3" value="&lt;b&gt;&lt;font color=&quot;#00cc00&quot; style=&quot;font-size: 18px;&quot;&gt;FILE&lt;/font&gt;&lt;/b&gt;" style="shape=card;whiteSpace=wrap;html=1;fillColor=#60a917;fontColor=#ffffff;strokeColor=#2D7600;sketch=1;curveFitting=1;jiggle=2;" vertex="1" parent="1">
                    <mxGeometry x="340" y="110" width="80" height="100" as="geometry"/>
                </mxCell>
                <mxCell id="4" value="&lt;b&gt;&lt;font color=&quot;#00cccc&quot; style=&quot;font-size: 14px;&quot;&gt;INTERNET&lt;/font&gt;&lt;/b&gt;" style="ellipse;shape=cloud;whiteSpace=wrap;html=1;fillColor=#b1ddf0;strokeColor=#10739e;sketch=1;curveFitting=1;jiggle=2;" vertex="1" parent="1">
                    <mxGeometry x="100" y="320" width="140" height="80" as="geometry"/>
                </mxCell>
                <mxCell id="5" value="" style="curved=1;endArrow=classic;html=1;entryX=0.625;entryY=0.99;entryDx=0;entryDy=0;entryPerimeter=0;flowAnimation=1;sketch=1;curveFitting=1;jiggle=2;fillColor=#b1ddf0;strokeColor=#10739e;" edge="1" parent="1" source="4" target="3">
                    <mxGeometry width="50" height="50" relative="1" as="geometry">
                        <mxPoint x="260" y="360" as="sourcePoint"/>
                        <mxPoint x="310" y="310" as="targetPoint"/>
                        <Array as="points">
                            <mxPoint x="310" y="360"/>
                            <mxPoint x="260" y="310"/>
                        </Array>
                    </mxGeometry>
                </mxCell>
                <mxCell id="8" value="" style="curved=1;endArrow=classic;html=1;hachureGap=4;fontFamily=Architects Daughter;fontSource=https%3A%2F%2Ffonts.googleapis.com%2Fcss%3Ffamily%3DArchitects%2BDaughter;fontSize=14;fontColor=#00CCCC;entryX=0.5;entryY=1;entryDx=0;entryDy=0;entryPerimeter=0;fillColor=#b1ddf0;strokeColor=#10739e;sketch=1;curveFitting=1;jiggle=2;" edge="1" parent="1" source="4" target="2">
                    <mxGeometry width="50" height="50" relative="1" as="geometry">
                        <mxPoint x="90" y="320" as="sourcePoint"/>
                        <mxPoint x="140" y="270" as="targetPoint"/>
                        <Array as="points">
                            <mxPoint x="140" y="320"/>
                            <mxPoint x="90" y="270"/>
                        </Array>
                    </mxGeometry>
                </mxCell>
                <mxCell id="9" value="" style="shape=image;html=1;verticalLabelPosition=bottom;verticalAlign=top;imageAspect=1;aspect=fixed;image=img/clipart/Gear_128x128.png;hachureGap=4;fontFamily=Architects Daughter;fontSource=https%3A%2F%2Ffonts.googleapis.com%2Fcss%3Ffamily%3DArchitects%2BDaughter;fontSize=14;fontColor=#00CCCC;sketch=1;curveFitting=1;jiggle=2;rotation=15;" vertex="1" parent="1">
                    <mxGeometry x="400" y="170" width="41.62" height="48.83" as="geometry"/>
                </mxCell>
                <mxCell id="10" value="" style="shape=singleArrow;direction=west;whiteSpace=wrap;html=1;hachureGap=4;fontFamily=Architects Daughter;fontSource=https%3A%2F%2Ffonts.googleapis.com%2Fcss%3Ffamily%3DArchitects%2BDaughter;fontSize=14;arrowWidth=0.36666666666666664;arrowSize=0.23;fillColor=#fad9d5;strokeColor=#ae4132;rotation=15;sketch=1;curveFitting=1;jiggle=2;" vertex="1" parent="1">
                    <mxGeometry x="170" y="145" width="160" height="30" as="geometry"/>
                </mxCell>
                <mxCell id="12" value="Server contents" style="points=[[0,0],[0.25,0],[0.5,0],[0.75,0],[1,0],[1,0.25],[1,0.5],[1,0.75],[1,1],[0.75,1],[0.5,1],[0.25,1],[0,1],[0,0.75],[0,0.5],[0,0.25]];outlineConnect=0;html=1;whiteSpace=wrap;fontSize=12;fontStyle=0;container=1;pointerEvents=0;collapsible=0;recursiveResize=0;shape=mxgraph.aws4.group;grIcon=mxgraph.aws4.group_on_premise;verticalAlign=top;align=left;spacingLeft=30;dashed=0;hachureGap=4;fontFamily=Architects Daughter;fontSource=https%3A%2F%2Ffonts.googleapis.com%2Fcss%3Ffamily%3DArchitects%2BDaughter;sketch=1;curveFitting=1;jiggle=2;fillColor=none;" vertex="1" parent="1">
                    <mxGeometry x="311.62" y="85" width="138.38" height="155" as="geometry"/>
                </mxCell>
                <mxCell id="16" value="" style="shape=actor;whiteSpace=wrap;html=1;hachureGap=4;fontFamily=Architects Daughter;fontSource=https%3A%2F%2Ffonts.googleapis.com%2Fcss%3Ffamily%3DArchitects%2BDaughter;fontSize=14;fontColor=#00CCCC;sketch=1;curveFitting=1;jiggle=2;" vertex="1" parent="1">
                    <mxGeometry x="470" y="350" width="40" height="60" as="geometry"/>
                </mxCell>
                <mxCell id="18" value="" style="fontColor=#0066CC;verticalAlign=top;verticalLabelPosition=bottom;labelPosition=center;align=center;html=1;outlineConnect=0;fillColor=#CCCCCC;strokeColor=#6881B3;gradientColor=none;gradientDirection=north;strokeWidth=2;shape=mxgraph.networks.pc;hachureGap=4;fontFamily=Architects Daughter;fontSource=https%3A%2F%2Ffonts.googleapis.com%2Fcss%3Ffamily%3DArchitects%2BDaughter;fontSize=14;sketch=1;curveFitting=1;jiggle=2;" vertex="1" parent="1">
                    <mxGeometry x="360" y="330" width="100" height="70" as="geometry"/>
                </mxCell>
            </root>
        </mxGraphModel>
    </diagram>
</mxfile>